HIERARCHY
ROOT Hips
{
	OFFSET 0.00000 0.00000 0.00000
	CHANNELS 6 Xposition Yposition Zposition Zrotation Yrotation Xrotation 
	JOINT LHipJoint
	{
		OFFSET 0 0 0
		CHANNELS 3 Zrotation Yrotation Xrotation
		JOINT LeftUpLeg
		{
			OFFSET 1.37590 -1.78394 0.89329
			CHANNELS 3 Zrotation Yrotation Xrotation
			JOINT LeftLeg
			{
				OFFSET 2.47928 -6.81178 0.00000
				CHANNELS 3 Zrotation Yrotation Xrotation
				JOINT LeftFoot
				{
					OFFSET 2.63345 -7.23535 0.00000
					CHANNELS 3 Zrotation Yrotation Xrotation
					JOINT LeftToeBase
					{
						OFFSET 0.23938 -0.65768 2.27012
						CHANNELS 3 Zrotation Yrotation Xrotation
						End Site
						{
							OFFSET 0.00000 -0.00000 1.18363
						}
					}
				}
			}
		}
	}
	JOINT RHipJoint
	{
		OFFSET 0 0 0
		CHANNELS 3 Zrotation Yrotation Xrotation
		JOINT RightUpLeg
		{
			OFFSET -1.33617 -1.78394 0.89329
			CHANNELS 3 Zrotation Yrotation Xrotation
			JOINT RightLeg
			{
				OFFSET -2.56922 -7.05888 0.00000
				CHANNELS 3 Zrotation Yrotation Xrotation
				JOINT RightFoot
				{
					OFFSET -2.56568 -7.04915 0.00000
					CHANNELS 3 Zrotation Yrotation Xrotation
					JOINT RightToeBase
					{
						OFFSET -0.27533 -0.75646 2.18105
						CHANNELS 3 Zrotation Yrotation Xrotation
						End Site
						{
							OFFSET -0.00000 -0.00000 1.15233
						}
					}
				}
			}
		}
	}
	JOINT LowerBack
	{
		OFFSET 0 0 0
		CHANNELS 3 Zrotation Yrotation Xrotation
		JOINT Spine
		{
			OFFSET 0.06190 2.15152 -0.00935
			CHANNELS 3 Zrotation Yrotation Xrotation
			JOINT Spine1
			{
				OFFSET 0.06334 2.15332 0.00872
				CHANNELS 3 Zrotation Yrotation Xrotation
				JOINT Neck
				{
					OFFSET 0 0 0
					CHANNELS 3 Zrotation Yrotation Xrotation
					JOINT Neck1
					{
						OFFSET -0.04202 1.66908 0.23524
						CHANNELS 3 Zrotation Yrotation Xrotation
						JOINT Head
						{
							OFFSET 0.07510 1.69357 -0.24440
							CHANNELS 3 Zrotation Yrotation Xrotation
							End Site
							{
								OFFSET 0.02556 1.71719 -0.11000
							}
						}
					}
				}
				JOINT LeftShoulder
				{
					OFFSET 0 0 0
					CHANNELS 3 Zrotation Yrotation Xrotation
					JOINT LeftArm
					{
						OFFSET 3.67168 1.26306 -0.41342
						CHANNELS 3 Zrotation Yrotation Xrotation
						JOINT LeftForeArm
						{
							OFFSET 4.68510 -0.00000 -0.00000
							CHANNELS 3 Zrotation Yrotation Xrotation
							JOINT LeftHand
							{
								OFFSET 3.39626 -0.00000 -0.00000
								CHANNELS 3 Zrotation Yrotation Xrotation
								JOINT LeftFingerBase
								{
									OFFSET 0 0 0
									CHANNELS 3 Zrotation Yrotation Xrotation
									JOINT LeftHandIndex1
									{
										OFFSET 0.48608 -0.00000 -0.00000
										CHANNELS 3 Zrotation Yrotation Xrotation
										End Site
										{
											OFFSET 0.39189 -0.00000 -0.00000
										}
									}
								}
								JOINT LThumb
								{
									OFFSET 0 0 0
									CHANNELS 3 Zrotation Yrotation Xrotation
									End Site
									{
										OFFSET 0.39787 -0.00000 0.39787
									}
								}
							}
						}
					}
				}
				JOINT RightShoulder
				{
					OFFSET 0 0 0
					CHANNELS 3 Zrotation Yrotation Xrotation
					JOINT RightArm
					{
						OFFSET -3.04136 1.42992 -0.76390
						CHANNELS 3 Zrotation Yrotation Xrotation
						JOINT RightForeArm
						{
							OFFSET -5.55576 -0.00000 -0.00000
							CHANNELS 3 Zrotation Yrotation Xrotation
							JOINT RightHand
							{
								OFFSET -3.32774 -0.00000 -0.00000
								CHANNELS 3 Zrotation Yrotation Xrotation
								JOINT RightFingerBase
								{
									OFFSET 0 0 0
									CHANNELS 3 Zrotation Yrotation Xrotation
									JOINT RightHandIndex1
									{
										OFFSET -0.50763 -0.00000 -0.00000
										CHANNELS 3 Zrotation Yrotation Xrotation
										End Site
										{
											OFFSET -0.40926 -0.00000 -0.00000
										}
									}
								}
								JOINT RThumb
								{
									OFFSET 0 0 0
									CHANNELS 3 Zrotation Yrotation Xrotation
									End Site
									{
										OFFSET -0.41551 -0.00000 0.41551
									}
								}
							}
						}
					}
				}
			}
		}
	}
}
MOTION
Frames: 15
Frame Time: .0083333
-0.5909 17.5984 4.7804 -489.0470 -77.5088 499.4150 0.0000 0.0000 0.0000 1.1992 -10.3320 -36.5190 0.8322 5.8197 16.2622 0.0228 4.8255 -7.6218 0.7569 -5.5565 -15.5027 0.0000 0.0000 0.0000 31.3902 6.2376 -2.9610 -1.4967 -7.7280 21.8908 -1.2004 -0.0235 -20.7321 -0.0116 -0.6942 1.9076 7.6474 -0.1683 2.9100 4.7936 -0.1582 1.1058 0.6692 -0.1502 -0.4877 -16.7043 -16.8722 -0.5025 25.0478 -25.6813 6.1396 7.9225 -12.4637 7.5683 -0.0000 0.0000 0.0000 -89.4316 19.4941 -0.2518 14.2168 -23.0439 -2.9125 -0.0000 -0.0000 29.2982 11.8622 15.7839 3.2700 -7.1250 0.0000 -0.0000 -14.7740 45.5559 -0.2073 -0.0000 0.0000 0.0000 36.6654 6.6667 61.5798 -145.0401 44.7835 -105.2149 0.0000 0.0000 17.4762 -36.7130 -11.8311 8.6930 7.1250 -0.0000 -0.0000 -8.8407 -44.4425 -0.1226
-0.7701 17.5749 4.7868 -489.6660 -77.2770 499.9840 0.0000 0.0000 0.0000 1.3344 -10.1654 -36.3171 0.8030 5.7194 15.9723 0.0335 4.5087 -7.5443 0.7860 -5.6597 -15.8002 0.0000 0.0000 0.0000 31.3453 6.0405 -2.4757 -1.5428 -7.8406 22.2308 -1.2257 0.3073 -20.8397 -0.0024 -0.3139 0.8625 7.6494 -0.2474 2.8620 4.6697 -0.2643 1.1110 0.5431 -0.1995 -0.4610 -16.9360 -17.0893 -0.1960 25.5526 -26.0626 5.7739 8.0595 -12.6828 7.6004 0.0000 -0.0000 0.0000 -89.2755 19.1562 -0.9404 13.8194 -22.4760 -2.7587 -0.0000 -0.0000 29.7319 11.8102 15.7584 3.2502 -7.1250 0.0000 -0.0000 -14.8128 45.5247 -0.1962 0.0000 -0.0000 0.0000 33.5843 7.4040 62.9200 -145.7494 44.2696 -105.7123 0.0000 0.0000 19.1914 -36.6628 -11.1191 8.1691 7.1250 -0.0000 -0.0000 -8.7635 -43.5731 -0.3111
-0.9515 17.5528 4.7942 -490.2040 -77.0861 500.4500 0.0000 0.0000 0.0000 1.3360 -9.9202 -36.2040 0.8155 5.7625 16.0968 0.0427 4.0430 -7.2715 0.8183 -5.7722 -16.1249 0.0000 0.0000 0.0000 31.2671 5.8466 -2.0254 -1.6041 -7.9875 22.6762 -1.2447 0.5955 -20.9107 -0.0005 0.1414 -0.3884 7.6441 -0.3374 2.8264 4.5326 -0.3819 1.1055 0.4077 -0.2549 -0.4535 -17.1541 -17.3001 0.1309 26.0624 -26.4312 5.3696 8.1998 -12.9006 7.6167 -0.0000 -0.0000 0.0000 -89.0527 18.8215 -1.5148 13.4542 -21.9490 -2.6206 -0.0000 -0.0000 30.1934 11.6668 15.6982 3.1978 -7.1250 0.0000 -0.0000 -14.9228 45.4484 -0.1689 -0.0000 -0.0000 0.0000 30.4733 8.0587 63.5690 -146.2523 43.8969 -106.0622 0.0000 0.0000 19.9634 -36.7278 -10.7462 7.9204 7.1250 -0.0000 -0.0000 -8.8070 -43.1290 -0.4100
-1.1352 17.5323 4.8030 -490.6560 -76.9502 500.8100 0.0000 0.0000 0.0000 1.1933 -9.5962 -36.1968 0.8692 5.9446 16.6237 0.0439 3.5132 -6.7134 0.8436 -5.8585 -16.3743 0.0000 0.0000 0.0000 31.1479 5.6577 -1.6262 -1.6840 -8.1744 23.2450 -1.2574 0.8448 -20.9434 -0.0101 0.6494 -1.7847 7.6322 -0.4434 2.8110 4.3780 -0.5158 1.0773 0.2589 -0.3192 -0.4825 -17.3609 -17.4986 0.4764 26.5754 -26.7838 4.9474 8.3438 -13.1150 7.6231 -0.0000 0.0000 0.0000 -88.7680 18.5254 -1.9658 13.1447 -21.4989 -2.5061 -0.0000 -0.0000 30.6814 11.4285 15.5961 3.1110 -7.1250 0.0000 -0.0000 -15.1047 45.3198 -0.1221 -0.0000 0.0000 0.0000 27.3837 8.5859 63.5149 -146.4588 43.7419 -106.2051 0.0000 0.0000 19.8518 -36.9211 -10.5406 7.8265 7.1250 -0.0000 -0.0000 -8.9757 -42.9038 -0.4683
-1.3208 17.5139 4.8129 -491.0000 -76.8796 501.0450 0.0000 0.0000 0.0000 0.9229 -9.2375 -36.2767 0.9617 6.2440 17.4941 0.0339 3.0563 -5.8691 0.8598 -5.9131 -16.5324 0.0000 0.0000 0.0000 30.9865 5.4727 -1.2928 -1.7860 -8.4052 23.9519 -1.2621 1.0458 -20.9247 -0.0350 1.2077 -3.3204 7.6102 -0.5709 2.8203 4.2088 -0.6729 1.0248 0.1020 -0.3962 -0.5525 -17.5597 -17.6870 0.8136 27.0812 -27.1263 4.5391 8.4850 -13.3253 7.6341 -0.0000 -0.0000 0.0000 -88.4406 18.2758 -2.3182 12.9011 -21.1421 -2.4175 -0.0000 -0.0000 31.2050 11.1415 15.4341 3.0003 -7.1250 0.0000 -0.0000 -15.3109 45.1273 -0.0493 -0.0000 -0.0000 0.0000 24.3659 8.9550 62.7574 -146.2629 43.8890 -106.0695 0.0000 0.0000 19.1442 -37.2284 -10.4742 7.8645 7.1250 -0.0000 -0.0000 -9.2564 -42.8623 -0.4928
-1.5079 17.4981 4.8239 -491.2510 -76.8824 501.1720 0.0000 0.0000 0.0000 0.5451 -8.8879 -36.4227 1.0895 6.6336 18.6342 0.0175 2.7344 -4.8266 0.8493 -5.8777 -16.4299 0.0000 0.0000 0.0000 30.7777 5.2974 -1.0397 -1.9142 -8.6850 24.8147 -1.2564 1.2008 -20.8323 -0.0780 1.8012 -4.9566 7.5751 -0.7220 2.8435 4.0184 -0.8582 0.9569 -0.0678 -0.4878 -0.6490 -17.7432 -17.8653 1.1272 27.5875 -27.4614 4.1532 8.6225 -13.5313 7.6560 -0.0000 0.0000 0.0000 -88.0722 18.0644 -2.5848 12.7305 -20.8910 -2.3563 -0.0000 -0.0000 31.7377 10.8328 15.2180 2.8755 -7.1250 0.0000 -0.0000 -15.5185 44.8802 0.0470 -0.0000 0.0000 0.0000 21.4768 9.1640 61.3255 -145.5656 44.4040 -105.5839 0.0000 0.0000 18.1722 -37.5535 -10.5650 8.0237 7.1250 -0.0000 -0.0000 -9.5631 -43.0153 -0.4730
-1.6963 17.4853 4.8356 -491.4410 -76.9627 501.2200 0.0000 0.0000 0.0000 0.0813 -8.5912 -36.5955 1.2455 7.0762 19.9412 0.0029 2.5003 -3.7569 0.8152 -5.7614 -16.0937 0.0000 0.0000 0.0000 30.5143 5.1376 -0.8764 -2.0734 -9.0172 25.8493 -1.2377 1.3151 -20.6418 -0.1394 2.4061 -6.6295 7.5161 -0.8961 2.8652 3.8044 -1.0744 0.8895 -0.2470 -0.5945 -0.7471 -17.8984 -18.0356 1.3978 28.0918 -27.7895 3.7913 8.7519 -13.7310 7.6901 0.0000 -0.0000 0.0000 -87.6683 17.8660 -2.7793 12.6316 -20.7451 -2.3212 -0.0000 -0.0000 32.2461 10.5481 14.9734 2.7544 -7.1250 0.0000 -0.0000 -15.6949 44.6091 0.1554 0.0000 -0.0000 0.0000 18.7627 9.2375 59.2661 -144.2422 45.3457 -104.6501 0.0000 0.0000 17.2140 -37.8523 -10.7076 8.2162 7.1250 -0.0000 -0.0000 -9.8501 -43.2296 -0.4349
-1.8854 17.4766 4.8478 -491.6190 -77.1238 501.2310 0.0000 0.0000 0.0000 -0.4577 -8.3782 -36.7415 1.4180 7.5308 21.2977 -0.0052 2.2652 -2.8137 0.7544 -5.5474 -15.4766 0.0000 0.0000 0.0000 30.1867 4.9966 -0.8045 -2.2676 -9.4025 27.0628 -1.2036 1.3969 -20.3262 -0.2158 2.9908 -8.2533 7.4174 -1.0945 2.9012 3.5665 -1.3220 0.8188 -0.4265 -0.7168 -0.8596 -18.0371 -18.1880 1.6447 28.6044 -28.0987 3.4447 8.8831 -13.9212 7.7311 -0.0000 0.0000 0.0000 -87.2403 17.6868 -2.9321 12.5951 -20.6911 -2.3083 -0.0000 -0.0000 32.6871 10.3180 14.7321 2.6507 -7.1250 0.0000 -0.0000 -15.8237 44.3482 0.2614 -0.0000 0.0000 0.0000 16.2557 9.1896 56.7103 -142.1610 46.7362 -103.1517 0.0000 0.0000 16.5929 -38.0287 -10.8893 8.4044 7.1250 -0.0000 -0.0000 -10.0271 -43.4768 -0.3810
-2.0754 17.4721 4.8598 -491.8130 -77.3497 501.2320 0.0000 0.0000 0.0000 -1.0536 -8.2407 -36.8109 1.5924 7.9597 22.5917 -0.0075 1.9788 -2.0512 0.6666 -5.2216 -14.5416 0.0000 0.0000 0.0000 29.8044 4.8819 -0.8227 -2.5004 -9.8387 28.4559 -1.1494 1.4393 -19.8409 -0.3015 3.5306 -9.7597 7.2767 -1.3106 2.9333 3.3071 -1.5959 0.7605 -0.6032 -0.8515 -0.9595 -18.1375 -18.3306 1.8613 29.1000 -28.3929 3.1129 9.0036 -14.1028 7.7722 0.0000 -0.0000 0.0000 -86.7916 17.5038 -3.0404 12.6146 -20.7199 -2.3151 -0.0000 -0.0000 32.9972 10.1828 14.5342 2.5810 -7.1250 0.0000 -0.0000 -15.8818 44.1405 0.3460 0.0000 -0.0000 0.0000 13.9688 9.0901 53.7942 -139.1786 48.5491 -100.9473 0.0000 0.0000 16.3565 -38.0528 -11.1531 8.6099 7.1250 -0.0000 -0.0000 -10.0677 -43.8044 -0.3003
-2.2661 17.4723 4.8716 -492.0320 -77.6240 501.2300 0.0000 0.0000 0.0000 -1.6970 -8.1541 -36.7753 1.7576 8.3419 23.7574 -0.0058 1.6019 -1.5011 0.5600 -4.7934 -13.3202 0.0000 0.0000 0.0000 29.3779 4.7920 -0.9362 -2.7749 -10.3214 30.0238 -1.0735 1.4412 -19.1569 -0.3869 3.9946 -11.0614 7.0964 -1.5382 2.9639 3.0341 -1.8875 0.7085 -0.7704 -0.9947 -1.0535 -18.2083 -18.4569 2.0720 29.5699 -28.6609 2.7892 9.1175 -14.2728 7.8034 -0.0000 0.0000 0.0000 -86.3287 17.3201 -3.1008 12.6796 -20.8160 -2.3382 -0.0000 -0.0000 33.1252 10.1688 14.4087 2.5556 -7.1250 0.0000 -0.0000 -15.8554 44.0171 0.3951 -0.0000 0.0000 0.0000 11.9003 8.9904 50.6646 -135.1048 50.7170 -97.8424 0.0000 0.0000 16.5232 -37.9361 -11.4152 8.7702 7.1250 -0.0000 -0.0000 -9.9750 -44.1097 -0.2215
-2.4583 17.4772 4.8830 -492.2890 -77.9114 501.2350 0.0000 0.0000 0.0000 -2.3715 -8.0811 -36.5916 1.9057 8.6668 24.7584 -0.0026 1.1269 -1.1205 0.4451 -4.2807 -11.8677 0.0000 0.0000 0.0000 28.9286 4.7224 -1.1285 -3.0897 -10.8388 31.7382 -0.9738 1.3893 -18.2358 -0.4635 4.3669 -12.1113 6.8949 -1.7647 2.9930 2.7595 -2.1805 0.6634 -0.9266 -1.1385 -1.1399 -18.2470 -18.5719 2.2693 29.9756 -28.9037 2.4945 9.2112 -14.4290 7.8240 -0.0000 0.0000 0.0000 -85.8636 17.1234 -3.1417 12.7680 -20.9464 -2.3697 -0.0000 -0.0000 33.0796 10.2922 14.3666 2.5798 -7.1250 0.0000 -0.0000 -15.7331 43.9897 0.4028 -0.0000 0.0000 0.0000 10.0231 8.9456 47.4444 -129.7045 53.1140 -93.5897 0.0000 0.0000 17.0386 -37.7258 -11.7285 8.9369 7.1250 -0.0000 -0.0000 -9.7953 -44.4631 -0.1311
-2.6526 17.4862 4.8948 -492.5700 -78.1800 501.2370 0.0000 0.0000 0.0000 -3.0598 -7.9787 -36.2598 2.0357 8.9401 25.6083 -0.0002 0.6117 -0.8200 0.3259 -3.6693 -10.1481 0.0000 0.0000 0.0000 28.4763 4.6653 -1.3955 -3.4420 -11.3783 33.5665 -0.8500 1.2742 -17.0373 -0.5135 4.5932 -12.7519 6.6979 -1.9796 3.0201 2.4957 -2.4596 0.6167 -1.0737 -1.2759 -1.2262 -18.2537 -18.6852 2.4388 30.2660 -29.1321 2.2716 9.2639 -14.5719 7.8413 -0.0000 0.0000 0.0000 -85.4037 16.9115 -3.1624 12.8647 -21.0887 -2.4044 -0.0000 -0.0000 32.8649 10.5492 14.4083 2.6531 -7.1250 0.0000 -0.0000 -15.5184 44.0587 0.3698 -0.0000 0.0000 0.0000 8.2973 9.0153 44.2529 -122.6776 55.5532 -87.8771 0.0000 0.0000 17.8468 -37.4553 -12.1589 9.1660 7.1250 -0.0000 -0.0000 -9.5614 -44.9485 -0.0123
-2.8489 17.4991 4.9076 -492.8540 -78.3995 501.2160 0.0000 0.0000 0.0000 -3.7333 -7.8365 -35.7633 2.1466 9.1650 26.3129 0.0007 0.1574 -0.5704 0.2157 -2.9902 -8.2515 0.0000 0.0000 0.0000 28.0432 4.6209 -1.7242 -3.8268 -11.9263 35.4719 -0.7048 1.0608 -15.5358 -0.5294 4.6627 -12.9491 6.5268 -2.1692 3.0360 2.2600 -2.7075 0.5723 -1.2074 -1.3982 -1.3020 -18.2390 -18.8082 2.5635 30.4114 -29.3577 2.1434 9.2623 -14.7026 7.8628 0.0000 0.0000 0.0000 -84.9634 16.6493 -3.1850 12.9449 -21.2064 -2.4333 -0.0000 -0.0000 32.5425 10.9197 14.5426 2.7735 -7.1250 0.0000 -0.0000 -15.2306 44.2309 0.2963 0.0000 0.0000 0.0000 6.6727 9.2314 41.1249 -113.7470 57.7581 -80.4107 0.0000 0.0000 18.7964 -37.2276 -12.7164 9.4949 7.1250 -0.0000 -0.0000 -9.3692 -45.5914 0.1380
-3.0470 17.5153 4.9224 -493.1670 -78.5624 501.2010 0.0000 0.0000 0.0000 -4.3837 -7.6622 -35.1031 2.2381 9.3454 26.8819 0.0005 -0.2010 -0.4043 0.1209 -2.2417 -6.1742 0.0000 0.0000 0.0000 27.6257 4.5843 -2.1049 -4.2369 -12.4692 37.4125 -0.5444 0.7099 -13.7115 -0.4999 4.5328 -12.5807 6.3894 -2.3275 3.0421 2.0565 -2.9152 0.5258 -1.3285 -1.5013 -1.3723 -18.2129 -18.9454 2.6416 30.4094 -29.5869 2.1144 9.2051 -14.8227 7.8920 0.0000 -0.0000 0.0000 -84.5445 16.3161 -3.2243 12.9903 -21.2730 -2.4498 -0.0000 -0.0000 32.1659 11.3660 14.7680 2.9333 -7.1250 0.0000 -0.0000 -14.9021 44.5017 0.1876 0.0000 -0.0000 0.0000 5.1223 9.6112 38.0832 -102.8028 59.3715 -71.0641 0.0000 0.0000 19.7782 -37.0378 -13.4026 9.9211 7.1250 -0.0000 -0.0000 -9.2120 -46.3919 0.3191
-3.2460 17.5343 4.9394 -493.5460 -78.6751 501.2380 0.0000 0.0000 0.0000 -5.0095 -7.4705 -34.2986 2.3094 9.4828 27.3177 0.0001 -0.4937 -0.3868 0.0550 -1.5134 -4.1627 0.0000 0.0000 0.0000 27.2116 4.5574 -2.5375 -4.6666 -12.9982 39.3616 -0.3789 0.1949 -11.5617 -0.4269 4.1933 -11.6211 6.2751 -2.4505 3.0365 1.8871 -3.0773 0.4751 -1.4297 -1.5821 -1.4366 -18.1834 -19.0976 2.6866 30.2829 -29.8183 2.1547 9.1029 -14.9344 7.9225 -0.0000 0.0000 0.0000 -84.1451 15.8894 -3.2806 12.9914 -21.2746 -2.4502 -0.0000 -0.0000 31.7896 11.8411 15.0788 3.1220 -7.1250 0.0000 -0.0000 -14.5723 44.8614 0.0510 -0.0000 0.0000 0.0000 3.6285 10.1605 35.0946 -90.2178 59.9998 -60.1886 0.0000 0.0000 20.5948 -36.8891 -14.2396 10.4597 7.1250 -0.0000 -0.0000 -9.0913 -47.3758 0.5372
